<svg xmlns="http://www.w3.org/2000/svg" height="98.973" width="366.083"><g fill="#519548"><path d="m88.665 80.133c-2.417-.001-4.454-.59-6.132-1.77-1.667-1.176-2.861-2.911-3.606-5.199-.443-1.416-.752-2.954-.922-4.617-.171-1.67-.259-3.841-.254-6.535-.015-2.692.065-4.873.231-6.538.164-1.664.469-3.206.909-4.621.735-2.29 1.924-4.032 3.586-5.219 1.675-1.179 3.711-1.78 6.125-1.79 2.402.001 4.451.595 6.116 1.77 1.67 1.18 2.876 2.917 3.606 5.206.446 1.411.756 2.955.925 4.617.173 1.665.261 3.844.254 6.538.015 2.692-.064 4.865-.23 6.535-.165 1.665-.471 3.202-.91 4.621-.722 2.29-1.921 4.027-3.589 5.211-1.66 1.185-3.706 1.78-6.109 1.79m.026 15.84c6.683-.034 12.397-1.609 17.169-4.726 4.76-3.119 8.086-7.641 9.961-13.58.703-2.311 1.228-4.709 1.56-7.206.334-2.498.498-5.337.48-8.518.005-3.186-.168-6.021-.51-8.516-.339-2.496-.874-4.9-1.584-7.209-1.895-5.926-5.238-10.442-10.008-13.545-4.782-3.103-10.504-4.657-17.185-4.669-6.688.034-12.41 1.609-17.18 4.728-4.761 3.119-8.086 7.648-9.964 13.579-.704 2.313-1.226 4.718-1.56 7.214-.333 2.498-.486 5.332-.481 8.519.005 3.18.169 6.02.51 8.516.343 2.496.874 4.891 1.585 7.201 1.896 5.933 5.236 10.444 10.01 13.545 4.782 3.101 10.51 4.657 17.196 4.668" fill-rule="evenodd"/><path d="m150.185 95.194c.389 0 .691-.128.925-.369.232-.241.356-.564.356-.975l-.021-13.3c-.003-.41-.128-.732-.361-.971-.235-.242-.537-.361-.925-.372l-2.723.005c-1.867.025-3.25-.449-4.126-1.416-.889-.974-1.324-2.554-1.329-4.749l-.116-68.644c0-.41-.117-.734-.35-.975-.231-.24-.546-.365-.938-.369l-15.522.026c-.39.005-.695.131-.927.372-.231.242-.359.565-.359.976l.122 70.121c-.051 7.15 1.467 12.393 4.529 15.725 3.076 3.336 8.033 4.976 14.9 4.926l6.865-.013z" fill-rule="evenodd"/><path d="m174.955 94.347c.403-.006.707-.128.938-.367.235-.242.359-.571.359-.976l-.107-62.324c0-.411-.126-.732-.361-.973-.231-.242-.537-.369-.938-.372l-15.512.027c-.391.006-.706.133-.938.375-.235.24-.346.563-.356.974l.107 62.322c.011.405.124.734.359.975.231.241.549.361.94.365l15.51-.026zm-.13-75.37c.404-.014.709-.134.938-.374.235-.242.36-.565.36-.976l-.025-13.282c0-.411-.126-.734-.359-.975-.233-.241-.54-.365-.94-.37l-15.512.027c-.391.005-.706.131-.938.372-.232.242-.345.565-.356.976l.024 13.282c.013.411.125.732.359.975.232.239.547.359.938.37l15.512-.026z" fill-rule="evenodd"/><path d="m210.635 95.764c8.975-.114 15.848-2.179 20.617-6.195 4.771-4.016 7.197-9.396 7.287-16.144.044-5.494-1.586-9.956-4.902-13.395-3.308-3.438-8.625-5.546-15.945-6.322l-6.865-.799c-3.479-.328-5.823-.931-7.016-1.815-1.194-.886-1.755-2.066-1.673-3.546-.013-1.636.637-2.935 1.944-3.901 1.316-.966 3.289-1.462 5.945-1.489 3.271.037 6.381.552 9.314 1.545 2.933.996 5.476 2.218 7.651 3.671.328.203.645.294.95.266.315-.027.597-.209.864-.537l7.218-9.281c.251-.346.359-.698.324-1.059-.044-.361-.188-.68-.454-.958-2.946-2.326-6.565-4.232-10.891-5.719-4.316-1.486-9.137-2.245-14.482-2.291-8.203.085-14.529 1.969-18.973 5.655-4.452 3.688-6.691 8.755-6.732 15.205.031 5.859 1.801 10.466 5.295 13.82 3.486 3.349 8.543 5.362 15.176 6.04l6.991.79c3.545.33 5.94.964 7.186 1.9 1.254.939 1.837 2.185 1.757 3.728.014 1.846-.776 3.333-2.366 4.457-1.601 1.125-4.035 1.71-7.339 1.744-3.276-.013-6.589-.643-9.924-1.885-3.326-1.235-6.406-2.971-9.234-5.206-.669-.536-1.281-.535-1.816.003l-8.386 9.826c-.254.273-.389.593-.389.936 0 .348.138.665.394.943 2.974 2.759 6.829 5.103 11.565 7.026 4.739 1.92 10.382 2.915 16.909 2.988" fill-rule="evenodd"/><path d="m260.595 54.855c-.515.003-.781-.273-.781-.81.007-.995.061-1.887.174-2.671.114-.782.273-1.505.471-2.167.722-2.245 2.006-3.99 3.817-5.241 1.821-1.251 4.036-1.885 6.651-1.911 2.605.018 4.831.643 6.645 1.887 1.826 1.245 3.108 2.986 3.85 5.229.189.663.349 1.385.466 2.167.117.782.184 1.675.186 2.671 0 .536-.255.81-.779.813l-20.701.034zm11.194 40.805c5.781-.05 10.922-1.049 15.41-2.995 4.5-1.946 8.242-4.586 11.229-7.92.264-.285.39-.597.378-.941-.019-.35-.19-.657-.508-.941l-8.553-8.319c-.269-.328-.551-.481-.856-.453-.307.027-.633.176-.96.456-1.789 1.776-3.855 3.181-6.204 4.214-2.339 1.032-5.059 1.565-8.146 1.591-3.271.005-6.024-.722-8.271-2.17-2.249-1.447-3.801-3.584-4.684-6.412-.393-1.077-.649-2.288-.787-3.634 0-.536.265-.802.781-.805l37.92-.065c.451-.006.8-.128 1.04-.37.251-.24.37-.569.378-.974-.016-5.376-.203-9.551-.569-12.519-.374-2.966-.884-5.467-1.542-7.492-1.856-5.756-5.088-10.22-9.715-13.398-4.611-3.177-10.405-4.784-17.363-4.821-6.726.05-12.417 1.664-17.085 4.848-4.666 3.185-7.927 7.711-9.793 13.595-.653 1.995-1.155 4.24-1.509 6.747-.364 2.51-.537 5.454-.545 8.849.018 3.327.235 6.234.64 8.723.403 2.495.935 4.734 1.591 6.725 1.856 5.881 5.154 10.42 9.895 13.629 4.73 3.205 10.676 4.826 17.828 4.853" fill-rule="evenodd"/><path d="m333.875 79.712c-2.405-.001-4.451-.59-6.12-1.769-1.667-1.179-2.874-2.913-3.604-5.2-.445-1.416-.752-2.954-.926-4.616-.17-1.67-.261-3.842-.254-6.535-.014-2.695.066-4.873.232-6.538.166-1.664.469-3.207.91-4.622.721-2.29 1.92-4.032 3.585-5.219 1.667-1.179 3.71-1.78 6.112-1.79 2.417.001 4.464.596 6.131 1.77 1.667 1.179 2.864 2.917 3.605 5.206.448 1.411.752 2.955.926 4.619.168 1.665.259 3.842.254 6.535.011 2.694-.069 4.867-.232 6.538-.166 1.664-.469 3.201-.91 4.62-.732 2.29-1.923 4.026-3.588 5.21-1.665 1.188-3.708 1.781-6.122 1.791m.026 15.841c6.685-.034 12.41-1.61 17.181-4.728 4.76-3.119 8.082-7.641 9.96-13.579.704-2.311 1.229-4.71 1.56-7.207.333-2.496.499-5.34.481-8.516.007-3.188-.169-6.021-.51-8.519-.339-2.495-.874-4.899-1.585-7.207-1.896-5.926-5.236-10.442-10.006-13.545-4.784-3.103-10.511-4.657-17.197-4.669-6.673.034-12.397 1.609-17.171 4.729-4.758 3.118-8.08 7.646-9.96 13.578-.704 2.313-1.226 4.718-1.56 7.215-.333 2.498-.484 5.331-.479 8.519.005 3.179.169 6.02.508 8.515.341 2.496.874 4.893 1.585 7.202 1.899 5.931 5.236 10.442 10.009 13.544 4.784 3.101 10.511 4.656 17.185 4.669" fill-rule="evenodd"/><path d="m60.86 94.542l-17.21.03c-.441.006-.813-.104-1.12-.316-.295-.211-.569-.556-.823-1.022l-13.02-24.329-6.895 8.738c-.651.789-.556 1.731-.556 1.731l.024 13.896c-.01.406-.124.732-.356.976-.231.24-.537.361-.938.367l-15.512.026c-.391-.005-.705-.124-.938-.365-.235-.241-.351-.57-.361-.974l-.027-15.605c-.003-1 .147-1.161.484-1.599l35.532-45.183c.379-.47.747-.813 1.127-1.031.379-.215.821-.319 1.329-.32l16.565-.027c.39.02.644.18.74.47.105.295.031.579-.22.875l-18.721 23.685 21.547 38.634c.189.29.222.581.107.871-.116.29-.367.45-.759.471m-57.859-89.9c.013-.411.126-.735.359-.976.232-.242.546-.367.938-.374l15.512-.026c.4.004.706.129.938.37.235.241.349.564.361.975l.01 6.016.056 33.316c-.01.413-.122.734-.356.976-.232.241-.535.367-.938.374l-15.512.027c-.389-.006-.706-.131-.938-.371-.235-.242-.35-.564-.361-.975l-.069-39.333z"/></g></svg>
